<mxfile host="app.diagrams.net" modified="2021-03-25T16:16:24.032Z" agent="5.0 (Windows NT 10.0; Win64; x64) AppleWebKit/537.36 (KHTML, like Gecko) Chrome/89.0.4389.90 Safari/537.36" etag="VUkEOUYNxRD1eh1tL_o3" version="14.5.1" type="github">
  <diagram id="U-RBkGF5V4GigoPhBMhn" name="Page-1">
    <mxGraphModel dx="981" dy="486" grid="1" gridSize="10" guides="1" tooltips="1" connect="1" arrows="1" fold="1" page="1" pageScale="1" pageWidth="827" pageHeight="1169" math="0" shadow="0">
      <root>
        <mxCell id="0" />
        <mxCell id="1" parent="0" />
        <mxCell id="uRvXls7FICn1XOXW_QJ--19" style="edgeStyle=orthogonalEdgeStyle;rounded=0;orthogonalLoop=1;jettySize=auto;html=1;exitX=0.5;exitY=0;exitDx=0;exitDy=0;exitPerimeter=0;entryX=0.5;entryY=1;entryDx=0;entryDy=0;entryPerimeter=0;startArrow=classic;startFill=1;" edge="1" parent="1" source="uRvXls7FICn1XOXW_QJ--6" target="uRvXls7FICn1XOXW_QJ--7">
          <mxGeometry relative="1" as="geometry" />
        </mxCell>
        <mxCell id="uRvXls7FICn1XOXW_QJ--20" style="edgeStyle=orthogonalEdgeStyle;rounded=0;orthogonalLoop=1;jettySize=auto;html=1;exitX=1;exitY=0.5;exitDx=0;exitDy=0;exitPerimeter=0;entryX=0;entryY=0.5;entryDx=0;entryDy=0;entryPerimeter=0;startArrow=classic;startFill=1;" edge="1" parent="1" source="uRvXls7FICn1XOXW_QJ--6" target="uRvXls7FICn1XOXW_QJ--8">
          <mxGeometry relative="1" as="geometry" />
        </mxCell>
        <mxCell id="uRvXls7FICn1XOXW_QJ--21" style="edgeStyle=orthogonalEdgeStyle;rounded=0;orthogonalLoop=1;jettySize=auto;html=1;exitX=0.5;exitY=1;exitDx=0;exitDy=0;exitPerimeter=0;entryX=0.5;entryY=0;entryDx=0;entryDy=0;entryPerimeter=0;startArrow=classic;startFill=1;" edge="1" parent="1" source="uRvXls7FICn1XOXW_QJ--6" target="uRvXls7FICn1XOXW_QJ--10">
          <mxGeometry relative="1" as="geometry" />
        </mxCell>
        <mxCell id="uRvXls7FICn1XOXW_QJ--6" value="" style="shape=mxgraph.cisco.routers.router;html=1;pointerEvents=1;dashed=0;fillColor=#036897;strokeColor=#ffffff;strokeWidth=2;verticalLabelPosition=bottom;verticalAlign=top;align=center;outlineConnect=0;" vertex="1" parent="1">
          <mxGeometry x="307.5" y="300" width="78" height="53" as="geometry" />
        </mxCell>
        <mxCell id="uRvXls7FICn1XOXW_QJ--27" value="" style="edgeStyle=none;rounded=0;orthogonalLoop=1;jettySize=auto;html=1;startArrow=classic;startFill=1;" edge="1" parent="1" source="uRvXls7FICn1XOXW_QJ--7" target="uRvXls7FICn1XOXW_QJ--13">
          <mxGeometry relative="1" as="geometry" />
        </mxCell>
        <mxCell id="uRvXls7FICn1XOXW_QJ--28" style="edgeStyle=none;rounded=0;orthogonalLoop=1;jettySize=auto;html=1;exitX=0.88;exitY=0.1;exitDx=0;exitDy=0;exitPerimeter=0;entryX=0;entryY=0.98;entryDx=0;entryDy=0;entryPerimeter=0;startArrow=classic;startFill=1;" edge="1" parent="1" source="uRvXls7FICn1XOXW_QJ--7" target="uRvXls7FICn1XOXW_QJ--14">
          <mxGeometry relative="1" as="geometry" />
        </mxCell>
        <mxCell id="uRvXls7FICn1XOXW_QJ--29" style="edgeStyle=none;rounded=0;orthogonalLoop=1;jettySize=auto;html=1;exitX=0.12;exitY=0.1;exitDx=0;exitDy=0;exitPerimeter=0;startArrow=classic;startFill=1;" edge="1" parent="1" source="uRvXls7FICn1XOXW_QJ--7" target="uRvXls7FICn1XOXW_QJ--11">
          <mxGeometry relative="1" as="geometry" />
        </mxCell>
        <mxCell id="uRvXls7FICn1XOXW_QJ--7" value="" style="shape=mxgraph.cisco.routers.router;html=1;pointerEvents=1;dashed=0;fillColor=#036897;strokeColor=#ffffff;strokeWidth=2;verticalLabelPosition=bottom;verticalAlign=top;align=center;outlineConnect=0;" vertex="1" parent="1">
          <mxGeometry x="307.5" y="200" width="78" height="53" as="geometry" />
        </mxCell>
        <mxCell id="uRvXls7FICn1XOXW_QJ--23" style="rounded=0;orthogonalLoop=1;jettySize=auto;html=1;exitX=0.88;exitY=0.1;exitDx=0;exitDy=0;exitPerimeter=0;startArrow=classic;startFill=1;entryX=0;entryY=0.98;entryDx=0;entryDy=0;entryPerimeter=0;" edge="1" parent="1" source="uRvXls7FICn1XOXW_QJ--8" target="uRvXls7FICn1XOXW_QJ--15">
          <mxGeometry relative="1" as="geometry" />
        </mxCell>
        <mxCell id="uRvXls7FICn1XOXW_QJ--24" style="edgeStyle=none;rounded=0;orthogonalLoop=1;jettySize=auto;html=1;exitX=0.88;exitY=0.9;exitDx=0;exitDy=0;exitPerimeter=0;entryX=0;entryY=0.5;entryDx=0;entryDy=0;entryPerimeter=0;startArrow=classic;startFill=1;" edge="1" parent="1" source="uRvXls7FICn1XOXW_QJ--8" target="uRvXls7FICn1XOXW_QJ--16">
          <mxGeometry relative="1" as="geometry" />
        </mxCell>
        <mxCell id="uRvXls7FICn1XOXW_QJ--8" value="" style="shape=mxgraph.cisco.routers.router;html=1;pointerEvents=1;dashed=0;fillColor=#036897;strokeColor=#ffffff;strokeWidth=2;verticalLabelPosition=bottom;verticalAlign=top;align=center;outlineConnect=0;" vertex="1" parent="1">
          <mxGeometry x="440" y="300" width="78" height="53" as="geometry" />
        </mxCell>
        <mxCell id="uRvXls7FICn1XOXW_QJ--22" style="edgeStyle=orthogonalEdgeStyle;rounded=0;orthogonalLoop=1;jettySize=auto;html=1;exitX=1;exitY=0.5;exitDx=0;exitDy=0;exitPerimeter=0;entryX=0;entryY=0.5;entryDx=0;entryDy=0;entryPerimeter=0;startArrow=classic;startFill=1;" edge="1" parent="1" source="uRvXls7FICn1XOXW_QJ--9" target="uRvXls7FICn1XOXW_QJ--6">
          <mxGeometry relative="1" as="geometry" />
        </mxCell>
        <mxCell id="uRvXls7FICn1XOXW_QJ--9" value="" style="shape=mxgraph.cisco.routers.router;html=1;pointerEvents=1;dashed=0;fillColor=#036897;strokeColor=#ffffff;strokeWidth=2;verticalLabelPosition=bottom;verticalAlign=top;align=center;outlineConnect=0;" vertex="1" parent="1">
          <mxGeometry x="180" y="300" width="78" height="53" as="geometry" />
        </mxCell>
        <mxCell id="uRvXls7FICn1XOXW_QJ--25" style="edgeStyle=none;rounded=0;orthogonalLoop=1;jettySize=auto;html=1;exitX=0.5;exitY=1;exitDx=0;exitDy=0;exitPerimeter=0;startArrow=classic;startFill=1;entryX=0.5;entryY=0;entryDx=0;entryDy=0;entryPerimeter=0;" edge="1" parent="1" source="uRvXls7FICn1XOXW_QJ--10" target="uRvXls7FICn1XOXW_QJ--17">
          <mxGeometry relative="1" as="geometry">
            <mxPoint x="346.82758620689674" y="480" as="targetPoint" />
          </mxGeometry>
        </mxCell>
        <mxCell id="uRvXls7FICn1XOXW_QJ--10" value="" style="shape=mxgraph.cisco.routers.router;html=1;pointerEvents=1;dashed=0;fillColor=#036897;strokeColor=#ffffff;strokeWidth=2;verticalLabelPosition=bottom;verticalAlign=top;align=center;outlineConnect=0;" vertex="1" parent="1">
          <mxGeometry x="307.5" y="400" width="78" height="53" as="geometry" />
        </mxCell>
        <mxCell id="uRvXls7FICn1XOXW_QJ--11" value="" style="shape=mxgraph.cisco.switches.workgroup_switch;html=1;pointerEvents=1;dashed=0;fillColor=#036897;strokeColor=#ffffff;strokeWidth=2;verticalLabelPosition=bottom;verticalAlign=top;align=center;outlineConnect=0;" vertex="1" parent="1">
          <mxGeometry x="200" y="130" width="81" height="40" as="geometry" />
        </mxCell>
        <mxCell id="uRvXls7FICn1XOXW_QJ--13" value="" style="shape=mxgraph.cisco.switches.workgroup_switch;html=1;pointerEvents=1;dashed=0;fillColor=#036897;strokeColor=#ffffff;strokeWidth=2;verticalLabelPosition=bottom;verticalAlign=top;align=center;outlineConnect=0;" vertex="1" parent="1">
          <mxGeometry x="307.5" y="130" width="81" height="40" as="geometry" />
        </mxCell>
        <mxCell id="uRvXls7FICn1XOXW_QJ--14" value="" style="shape=mxgraph.cisco.switches.workgroup_switch;html=1;pointerEvents=1;dashed=0;fillColor=#036897;strokeColor=#ffffff;strokeWidth=2;verticalLabelPosition=bottom;verticalAlign=top;align=center;outlineConnect=0;" vertex="1" parent="1">
          <mxGeometry x="413.5" y="130" width="81" height="40" as="geometry" />
        </mxCell>
        <mxCell id="uRvXls7FICn1XOXW_QJ--15" value="" style="shape=mxgraph.cisco.switches.workgroup_switch;html=1;pointerEvents=1;dashed=0;fillColor=#036897;strokeColor=#ffffff;strokeWidth=2;verticalLabelPosition=bottom;verticalAlign=top;align=center;outlineConnect=0;" vertex="1" parent="1">
          <mxGeometry x="560" y="253" width="81" height="40" as="geometry" />
        </mxCell>
        <mxCell id="uRvXls7FICn1XOXW_QJ--16" value="" style="shape=mxgraph.cisco.switches.workgroup_switch;html=1;pointerEvents=1;dashed=0;fillColor=#036897;strokeColor=#ffffff;strokeWidth=2;verticalLabelPosition=bottom;verticalAlign=top;align=center;outlineConnect=0;" vertex="1" parent="1">
          <mxGeometry x="560" y="340" width="81" height="40" as="geometry" />
        </mxCell>
        <mxCell id="uRvXls7FICn1XOXW_QJ--17" value="" style="shape=mxgraph.cisco.switches.workgroup_switch;html=1;pointerEvents=1;dashed=0;fillColor=#036897;strokeColor=#ffffff;strokeWidth=2;verticalLabelPosition=bottom;verticalAlign=top;align=center;outlineConnect=0;" vertex="1" parent="1">
          <mxGeometry x="306" y="490" width="81" height="40" as="geometry" />
        </mxCell>
        <mxCell id="uRvXls7FICn1XOXW_QJ--26" value="" style="edgeStyle=none;rounded=0;orthogonalLoop=1;jettySize=auto;html=1;startArrow=classic;startFill=1;" edge="1" parent="1" source="uRvXls7FICn1XOXW_QJ--18" target="uRvXls7FICn1XOXW_QJ--9">
          <mxGeometry relative="1" as="geometry" />
        </mxCell>
        <mxCell id="uRvXls7FICn1XOXW_QJ--18" value="" style="shape=mxgraph.cisco.switches.workgroup_switch;html=1;pointerEvents=1;dashed=0;fillColor=#036897;strokeColor=#ffffff;strokeWidth=2;verticalLabelPosition=bottom;verticalAlign=top;align=center;outlineConnect=0;" vertex="1" parent="1">
          <mxGeometry x="60" y="306.5" width="81" height="40" as="geometry" />
        </mxCell>
      </root>
    </mxGraphModel>
  </diagram>
</mxfile>
